<svg width="32" height="32" viewBox="0 0 32 32" fill="none" xmlns="http://www.w3.org/2000/svg">
<path fill-rule="evenodd" clip-rule="evenodd" d="M16 2C8.268 2 2 8.268 2 16C2 23.732 8.268 30 16 30C23.732 30 30 23.732 30 16C30 8.268 23.732 2 16 2Z" fill="#E92B2B"/>
<path fill-rule="evenodd" clip-rule="evenodd" d="M28.1271 23H3.87305C4.63513 24.3174 5.60573 25.4991 6.73968 26.5H25.2605C26.3944 25.4991 27.3651 24.3174 28.1271 23Z" fill="#FBFBFB"/>
<path fill-rule="evenodd" clip-rule="evenodd" d="M30 16H2C2 17.2086 2.15314 18.3813 2.44106 19.5H29.5589C29.8469 18.3813 30 17.2086 30 16Z" fill="#FBFBFB"/>
<path fill-rule="evenodd" clip-rule="evenodd" d="M28.1274 9H3.87329C3.24666 10.0833 2.761 11.2583 2.44141 12.5H29.5593C29.2397 11.2583 28.7541 10.0833 28.1274 9Z" fill="#FBFBFB"/>
<path fill-rule="evenodd" clip-rule="evenodd" d="M25.259 5.5H6.73822C9.20622 3.32172 12.4481 2 15.9987 2C19.5492 2 22.791 3.32172 25.259 5.5Z" fill="#FBFBFB"/>
<path fill-rule="evenodd" clip-rule="evenodd" d="M14.6004 2.06909V16H2C2 8.74037 7.52556 2.77132 14.6004 2.06909Z" fill="#2A2FAF"/>
<path fill-rule="evenodd" clip-rule="evenodd" d="M4.13487 8.56738H4.7325L3.9096 9.16526L4.22393 10.1326L3.53125 9.62938C3.71732 9.26588 3.91881 8.91163 4.13487 8.56738Z" fill="#FBFBFB"/>
<path fill-rule="evenodd" clip-rule="evenodd" d="M2.33203 12.9582C2.34618 12.8944 2.36076 12.8307 2.37578 12.7672H3.08619L3.40051 11.7998L3.71483 12.7672H4.73199L3.90909 13.3651L4.22341 14.3324L3.40051 13.7346L2.57761 14.3324L2.89193 13.3651L2.33203 12.9582Z" fill="#FBFBFB"/>
<path fill-rule="evenodd" clip-rule="evenodd" d="M6.98722 5.28666C7.37653 4.95876 7.78403 4.65169 8.2079 4.36719H8.93178L8.10884 4.96506L8.42315 5.93244L7.60028 5.33456L6.7774 5.93244L6.98722 5.28666Z" fill="#FBFBFB"/>
<path d="M7.60097 7.6001L7.91528 8.56747H8.93247L8.10953 9.16535L8.42391 10.1327L7.60097 9.53485L6.7781 10.1327L7.09241 9.16535L6.26947 8.56747H7.28666L7.60097 7.6001Z" fill="#FBFBFB"/>
<path d="M7.60097 11.7998L7.91528 12.7672H8.93247L8.10953 13.3651L8.42391 14.3324L7.60097 13.7346L6.7781 14.3324L7.09241 13.3651L6.26947 12.7672H7.28666L7.60097 11.7998Z" fill="#FBFBFB"/>
<path d="M11.8003 3.3999L12.1146 4.36728H13.1317L12.3088 4.96515L12.6231 5.93253L11.8003 5.33466L10.9773 5.93253L11.2916 4.96515L10.4688 4.36728H11.4859L11.8003 3.3999Z" fill="#FBFBFB"/>
<path d="M11.8003 7.6001L12.1146 8.56747H13.1317L12.3088 9.16535L12.6231 10.1327L11.8003 9.53485L10.9773 10.1327L11.2916 9.16535L10.4688 8.56747H11.4859L11.8003 7.6001Z" fill="#FBFBFB"/>
<path d="M11.8003 11.7998L12.1146 12.7672H13.1317L12.3088 13.3651L12.6231 14.3324L11.8003 13.7346L10.9773 14.3324L11.2916 13.3651L10.4688 12.7672H11.4859L11.8003 11.7998Z" fill="#FBFBFB"/>
</svg>
