<svg width="32" height="32" viewBox="0 0 32 32" fill="none" xmlns="http://www.w3.org/2000/svg">
<g clip-path="url(#clip0_54_1626)">
<path d="M31.5 16C31.5 24.5604 24.5604 31.5 16 31.5C7.43959 31.5 0.5 24.5604 0.5 16C0.5 7.43959 7.43959 0.5 16 0.5C24.5604 0.5 31.5 7.43959 31.5 16Z" fill="#F0F0F0" stroke="white"/>
<path d="M31.0048 21.5652C31.648 19.8319 32 17.9571 32 16C32 14.0429 31.648 12.1681 31.0048 10.4348H0.995188C0.352063 12.1681 0 14.0429 0 16C0 17.9571 0.352063 19.8319 0.995188 21.5652L16 22.9565L31.0048 21.5652Z" fill="#0052B4"/>
<path d="M16 32C22.8794 32 28.7441 27.658 31.0048 21.5652H0.995178C3.25587 27.658 9.12055 32 16 32Z" fill="#D80027"/>
</g>
<defs>
<clipPath id="clip0_54_1626">
<rect width="32" height="32" fill="white"/>
</clipPath>
</defs>
</svg>
