<svg width="20" height="20" viewBox="0 0 20 20" fill="none" xmlns="http://www.w3.org/2000/svg">
<g clip-path="url(#clip0_54_1679)">
<path d="M4.36 5.33333C4.4 5.92667 4.5 6.50667 4.66 7.06L3.86 7.86C3.58667 7.06 3.41333 6.21333 3.35333 5.33333H4.36ZM10.9333 13.3467C11.5 13.5067 12.08 13.6067 12.6667 13.6467V14.64C11.7867 14.58 10.94 14.4067 10.1333 14.14L10.9333 13.3467ZM5 4H2.66667C2.3 4 2 4.3 2 4.66667C2 10.9267 7.07333 16 13.3333 16C13.7 16 14 15.7 14 15.3333V13.0067C14 12.64 13.7 12.34 13.3333 12.34C12.5067 12.34 11.7 12.2067 10.9533 11.96C10.8867 11.9333 10.8133 11.9267 10.7467 11.9267C10.5733 11.9267 10.4067 11.9933 10.2733 12.12L8.80667 13.5867C6.92 12.62 5.37333 11.08 4.41333 9.19333L5.88 7.72667C6.06667 7.54 6.12 7.28 6.04667 7.04667C5.8 6.3 5.66667 5.5 5.66667 4.66667C5.66667 4.3 5.36667 4 5 4Z" fill="white"/>
</g>
<defs>
<clipPath id="clip0_54_1679">
<rect width="16" height="16" fill="white" transform="translate(0 2)"/>
</clipPath>
</defs>
</svg>
